<?xml version="1.0" standalone="no"?><!DOCTYPE svg PUBLIC "-//W3C//DTD SVG 1.1//EN" "http://www.w3.org/Graphics/SVG/1.1/DTD/svg11.dtd"><svg t="1653716751682" class="icon" viewBox="0 0 1024 1024" version="1.1" xmlns="http://www.w3.org/2000/svg" p-id="2944" xmlns:xlink="http://www.w3.org/1999/xlink" width="200" height="200"><defs><style type="text/css">@font-face { font-family: feedback-iconfont; src: url("//at.alicdn.com/t/font_1031158_u69w8yhxdu.woff2?t=1630033759944") format("woff2"), url("//at.alicdn.com/t/font_1031158_u69w8yhxdu.woff?t=1630033759944") format("woff"), url("//at.alicdn.com/t/font_1031158_u69w8yhxdu.ttf?t=1630033759944") format("truetype"); }
</style></defs><path d="M798.272 981.312H225.728a104.832 104.832 0 0 1-104.832-104.768V318.016a46.08 46.08 0 0 1 46.912-46.912 46.08 46.08 0 0 1 46.912 46.912v558.528c0 6.208 4.736 10.88 11.008 10.88h572.544a10.688 10.688 0 0 0 10.944-10.88V318.016a46.08 46.08 0 0 1 46.976-46.912 46.08 46.08 0 0 1 46.912 46.912v558.528c0 57.856-46.912 104.768-104.832 104.768z" fill="#172B4D" p-id="2945"></path><path d="M934.4 364.928H89.6a46.08 46.08 0 0 1-46.912-46.912V89.6A46.08 46.08 0 0 1 89.6 42.688h844.8a46.08 46.08 0 0 1 46.912 46.912V318.08a47.04 47.04 0 0 1-46.912 46.912zM136.512 271.104h750.976V136.512H136.512v134.592zM590.208 508.864H433.792a46.08 46.08 0 0 1-46.976-46.912 46.08 46.08 0 0 1 46.976-46.912h156.416a46.08 46.08 0 0 1 46.976 46.912 46.08 46.08 0 0 1-46.976 46.912z" fill="#172B4D" p-id="2946"></path></svg>