<?xml version="1.0" standalone="no"?><!DOCTYPE svg PUBLIC "-//W3C//DTD SVG 1.1//EN" "http://www.w3.org/Graphics/SVG/1.1/DTD/svg11.dtd"><svg t="1653716855418" class="icon" viewBox="0 0 1024 1024" version="1.1" xmlns="http://www.w3.org/2000/svg" p-id="7582" xmlns:xlink="http://www.w3.org/1999/xlink" width="200" height="200"><defs><style type="text/css">@font-face { font-family: feedback-iconfont; src: url("//at.alicdn.com/t/font_1031158_u69w8yhxdu.woff2?t=1630033759944") format("woff2"), url("//at.alicdn.com/t/font_1031158_u69w8yhxdu.woff?t=1630033759944") format("woff"), url("//at.alicdn.com/t/font_1031158_u69w8yhxdu.ttf?t=1630033759944") format("truetype"); }
</style></defs><path d="M170.666667 283.008c5.973333-2.389333 13.141333-5.034667 21.461333-7.722667A416.853333 416.853333 0 0 1 320 256a416.853333 416.853333 0 0 1 127.872 19.285333c8.32 2.688 15.488 5.333333 21.461333 7.722667v464.213333A504.192 504.192 0 0 0 320 725.333333c-62.293333 0-113.024 10.581333-149.333333 21.888V283.008z m341.333333-74.581333c-9.642667-4.266667-22.357333-9.344-37.888-14.378667A502.144 502.144 0 0 0 320 170.666667c-65.109333 0-117.546667 11.562667-154.112 23.381333a379.264 379.264 0 0 0-42.709333 16.597333 251.946667 251.946667 0 0 0-15.232 7.68l-1.066667 0.597334-0.384 0.213333-0.128 0.085333h-0.042667c-0.085333 0.085333-10.538667 6.272-0.085333 0.085334A42.666667 42.666667 0 0 0 85.333333 256v554.666667a42.666667 42.666667 0 0 0 64.426667 36.693333l-0.213333 0.128h0.042666l0.085334-0.042667 0.042666-0.042666 1.578667-0.853334c1.578667-0.853333 4.181333-2.133333 7.765333-3.84 7.253333-3.328 18.346667-8.021333 33.066667-12.8A416.853333 416.853333 0 0 1 320 810.666667a416.853333 416.853333 0 0 1 127.872 19.242666 294.4 294.4 0 0 1 33.066667 12.8 169.642667 169.642667 0 0 1 9.514666 4.778667m0 0h-0.042666l-0.085334-0.042667-0.042666-0.042666c13.397333 7.893333 30.037333 7.893333 43.434666 0l1.578667-0.853334c1.578667-0.853333 4.181333-2.133333 7.765333-3.84a294.4 294.4 0 0 1 33.066667-12.8A416.853333 416.853333 0 0 1 704 810.666667a416.853333 416.853333 0 0 1 127.872 19.242666 294.4 294.4 0 0 1 33.066667 12.8 169.642667 169.642667 0 0 1 9.344 4.693334A42.666667 42.666667 0 0 0 938.666667 810.666667V256a42.666667 42.666667 0 0 0-20.906667-36.693333l-0.085333-0.042667h-0.042667l-0.128-0.128-0.426667-0.213333-1.024-0.597334a251.008 251.008 0 0 0-15.232-7.68 379.605333 379.605333 0 0 0-42.666666-16.597333A502.144 502.144 0 0 0 704 170.666667c-65.066667 0-117.546667 11.562667-154.112 23.381333a388.778667 388.778667 0 0 0-37.888 14.378667m341.333333 74.581333v464.213333A504.192 504.192 0 0 0 704 725.333333c-62.293333 0-113.024 10.581333-149.333333 21.888V283.008c5.973333-2.389333 13.141333-5.034667 21.461333-7.722667A416.853333 416.853333 0 0 1 704 256a416.853333 416.853333 0 0 1 127.872 19.285333c8.32 2.688 15.488 5.333333 21.461333 7.722667z m20.906667 9.728l0.213333 0.085333h-0.042666l-0.128-0.085333z m0 554.666667l0.170667 0.085333-0.085334-0.085333" fill="#0D0D0D" p-id="7583"></path></svg>