<?xml version="1.0" standalone="no"?><!DOCTYPE svg PUBLIC "-//W3C//DTD SVG 1.1//EN" "http://www.w3.org/Graphics/SVG/1.1/DTD/svg11.dtd"><svg t="1653716829000" class="icon" viewBox="0 0 1024 1024" version="1.1" xmlns="http://www.w3.org/2000/svg" p-id="6018" xmlns:xlink="http://www.w3.org/1999/xlink" width="200" height="200"><defs><style type="text/css">@font-face { font-family: feedback-iconfont; src: url("//at.alicdn.com/t/font_1031158_u69w8yhxdu.woff2?t=1630033759944") format("woff2"), url("//at.alicdn.com/t/font_1031158_u69w8yhxdu.woff?t=1630033759944") format("woff"), url("//at.alicdn.com/t/font_1031158_u69w8yhxdu.ttf?t=1630033759944") format("truetype"); }
</style></defs><path d="M337.92 574.72c60.16 0 108.373333 48.64 108.373333 109.226667v145.493333c0 60.16-48.213333 109.226667-108.373333 109.226667H193.706667C133.973333 938.666667 85.333333 889.6 85.333333 829.44v-145.493333c0-60.586667 48.64-109.226667 108.373334-109.226667z m492.373333 0c59.733333 0 108.373333 48.64 108.373334 109.226667v145.493333c0 60.16-48.64 109.226667-108.373334 109.226667h-144.213333c-60.16 0-108.373333-49.066667-108.373333-109.226667v-145.493333c0-60.586667 48.213333-109.226667 108.373333-109.226667zM337.92 85.333333c60.16 0 108.373333 49.066667 108.373333 109.269334V340.053333c0 60.586667-48.213333 109.226667-108.373333 109.226667H193.706667C133.973333 449.28 85.333333 400.64 85.333333 340.053333V194.602667C85.333333 134.4 133.973333 85.333333 193.706667 85.333333z m492.373333 0C890.026667 85.333333 938.666667 134.4 938.666667 194.602667V340.053333c0 60.586667-48.64 109.226667-108.373334 109.226667h-144.213333c-60.16 0-108.373333-48.64-108.373333-109.226667V194.602667A108.714667 108.714667 0 0 1 686.08 85.333333z" fill="#200E32" p-id="6019"></path></svg>